<?xml version="1.0" standalone="no"?>
<!DOCTYPE svg PUBLIC "-//W3C//DTD SVG 20010904//EN"
 "http://www.w3.org/TR/2001/REC-SVG-20010904/DTD/svg10.dtd">
<svg version="1.0" xmlns="http://www.w3.org/2000/svg"
 width="300.000000pt" height="225.000000pt" viewBox="0 0 300.000000 225.000000"
 preserveAspectRatio="xMidYMid meet">
<metadata>
Created by potrace 1.10, written by Peter Selinger 2001-2011
</metadata>
<g transform="translate(0.000000,225.000000) scale(0.100000,-0.100000)"
fill="#000000" stroke="none">
<path d="M1430 1555 l0 -275 235 0 235 0 -2 273 -3 272 -232 3 -233 2 0 -275z
m440 0 l0 -255 -210 0 -210 0 0 255 0 255 210 0 210 0 0 -255z"/>
<path d="M650 1290 l0 -380 295 0 295 0 0 380 0 380 -295 0 -295 0 0 -380z
m570 3 l0 -358 -275 0 -275 0 0 358 0 357 275 0 275 0 0 -357z"/>
<path d="M1890 775 l0 -255 275 0 275 0 0 255 0 255 -275 0 -275 0 0 -255z
m530 0 l0 -235 -255 0 -255 0 0 235 0 235 255 0 255 0 0 -235z"/>
<path d="M1030 365 l0 -215 260 0 260 0 0 215 0 215 -260 0 -260 0 0 -215z
m500 0 l0 -195 -237 0 -238 0 0 195 0 195 238 0 237 0 0 -195z"/>
</g>
</svg>
